# xmcd
#
# Track frame offsets:
#	150
#	12812
#	21862
#	31900
#	41295
#	51142
#	61385
#	71702
#	82695
#	92502
#	103065
#	112905
#
# Disc length: 1650 seconds
#
# Revision: 1
# Processed by: cddbd v1.4PL0 Copyright (c) Steve Scherf et al.
# Submitted via: MusicWizard 6.0.2
#
DISCID=8606700c
DTITLE=Bob Wills - The Best Of Bob Wills
DYEAR=1900
DGENRE=Western Swing
TTITLE0=San Antonio Rose
TTITLE1=Eight'r From Decatur
TTITLE2=Deep In The Heart Of Texas
TTITLE3=Silver Bells (That Ring In The Night)
TTITLE4=Across The Alley From The Alamo
TTITLE5=Cimarron
TTITLE6=South Of The Border
TTITLE7=Milk Cow Blues
TTITLE8=My Adobe Hacienda
TTITLE9=Southwestern Waltz
TTITLE10=A Big Ball In Cowtown (We'll Dance Around)
TTITLE11=Pan Handle Rag
EXTD=
EXTT0=
EXTT1=
EXTT2=
EXTT3=
EXTT4=
EXTT5=
EXTT6=
EXTT7=
EXTT8=
EXTT9=
EXTT10=
EXTT11=
PLAYORDER=
